<svg xmlns="http://www.w3.org/2000/svg" width="300" height="300" viewBox="0 0 79.375 79.375"><text style="line-height:125%" x="2.617" y="221.966" font-weight="400" font-size="10.583" font-family="sans-serif" letter-spacing="0" word-spacing="0" stroke-width=".265" transform="translate(0 -217.625)"><tspan x="2.617" y="221.966" style="-inkscape-font-specification:'Avenir Next'" font-weight="700" font-size="2.822" font-family="Avenir Next">(0, 0)</tspan></text><text y="294.33" x="70.218" style="line-height:125%" font-weight="400" font-size="10.583" font-family="sans-serif" letter-spacing="0" word-spacing="0" stroke-width=".265" transform="translate(0 -217.625)"><tspan style="-inkscape-font-specification:'Avenir Next'" y="294.33" x="70.218" font-weight="700" font-size="2.822" font-family="Avenir Next">(1, 1)</tspan></text><g fill="#214853" opacity=".703"><path d="M5.82 69.321h4.234v4.233H5.821zm0-8.467h4.234v4.233H5.821zm0-8.467h4.234v4.233H5.821zm0-8.466h4.234v4.233H5.821zm0-8.467h4.234v4.233H5.821zm0-8.467h4.234v4.233H5.821zm0-8.466h4.234v4.233H5.821zm0-8.467h4.234v4.233H5.821z" fill-opacity=".379"/><path d="M5.82 65.087h4.234v4.233H5.821zm0-8.466h4.234v4.233H5.821zm0-8.467h4.234v4.233H5.821zm0-8.467h4.234v4.233H5.821zm0-8.466h4.234v4.233H5.821zm0-8.467h4.234v4.233H5.821zm0-8.467h4.234v4.233H5.821zm0-8.466h4.234v4.233H5.821z" fill-opacity=".995"/><path d="M10.054 65.088h4.233v4.233h-4.233zm0-8.468h4.233v4.234h-4.233zm0-8.466h4.233v4.233h-4.233zm0-8.466h4.233v4.233h-4.233zm0-8.468h4.233v4.234h-4.233zm0-8.466h4.233v4.233h-4.233zm0-8.466h4.233v4.233h-4.233zm0-8.468h4.233v4.234h-4.233z" fill-opacity=".379"/><path d="M10.054 69.32h4.233v4.234h-4.233zm0-8.465h4.233v4.233h-4.233zm0-8.467h4.233v4.233h-4.233zm0-8.468h4.233v4.234h-4.233zm0-8.465h4.233v4.233h-4.233zm0-8.467h4.233v4.233h-4.233zm0-8.468h4.233v4.234h-4.233zm0-8.465h4.233v4.233h-4.233z" fill-opacity=".995"/><path d="M14.287 69.321h4.234v4.233h-4.234zm0-8.467h4.234v4.233h-4.234zm0-8.467h4.234v4.233h-4.234zm0-8.466h4.234v4.233h-4.234zm0-8.467h4.234v4.233h-4.234zm0-8.467h4.234v4.233h-4.234zm0-8.466h4.234v4.233h-4.234zm0-8.467h4.234v4.233h-4.234z" fill-opacity=".379"/><path d="M14.287 65.087h4.234v4.233h-4.234zm0-8.466h4.234v4.233h-4.234zm0-8.467h4.234v4.233h-4.234zm0-8.467h4.234v4.233h-4.234zm0-8.466h4.234v4.233h-4.234zm0-8.467h4.234v4.233h-4.234zm0-8.467h4.234v4.233h-4.234zm0-8.466h4.234v4.233h-4.234z" fill-opacity=".995"/><path d="M18.52 65.088h4.234v4.233h-4.233zm0-8.468h4.234v4.234h-4.233zm0-8.466h4.234v4.233h-4.233zm0-8.466h4.234v4.233h-4.233zm0-8.468h4.234v4.234h-4.233zm0-8.466h4.234v4.233h-4.233zm0-8.466h4.234v4.233h-4.233zm0-8.468h4.234v4.234h-4.233z" fill-opacity=".379"/><path d="M18.52 69.32h4.234v4.234h-4.233zm0-8.465h4.234v4.233h-4.233zm0-8.467h4.234v4.233h-4.233zm0-8.468h4.234v4.234h-4.233zm0-8.465h4.234v4.233h-4.233zm0-8.467h4.234v4.233h-4.233zm0-8.468h4.234v4.234h-4.233zm0-8.465h4.234v4.233h-4.233z" fill-opacity=".995"/><path d="M22.754 69.321h4.233v4.233h-4.233zm0-8.467h4.233v4.233h-4.233zm0-8.467h4.233v4.233h-4.233zm0-8.466h4.233v4.233h-4.233zm0-8.467h4.233v4.233h-4.233zm0-8.467h4.233v4.233h-4.233zm0-8.466h4.233v4.233h-4.233zm0-8.467h4.233v4.233h-4.233z" fill-opacity=".379"/><path d="M22.754 65.087h4.233v4.233h-4.233zm0-8.466h4.233v4.233h-4.233zm0-8.467h4.233v4.233h-4.233zm0-8.467h4.233v4.233h-4.233zm0-8.466h4.233v4.233h-4.233zm0-8.467h4.233v4.233h-4.233zm0-8.467h4.233v4.233h-4.233zm0-8.466h4.233v4.233h-4.233z" fill-opacity=".995"/><path d="M26.987 65.088h4.234v4.233h-4.234zm0-8.468h4.234v4.234h-4.234zm0-8.466h4.234v4.233h-4.234zm0-8.466h4.234v4.233h-4.234zm0-8.468h4.234v4.234h-4.234zm0-8.466h4.234v4.233h-4.234zm0-8.466h4.234v4.233h-4.234zm0-8.468h4.234v4.234h-4.234z" fill-opacity=".379"/><path d="M26.987 69.32h4.234v4.234h-4.234zm0-8.465h4.234v4.233h-4.234zm0-8.467h4.234v4.233h-4.234zm0-8.468h4.234v4.234h-4.234zm0-8.465h4.234v4.233h-4.234zm0-8.467h4.234v4.233h-4.234zm0-8.468h4.234v4.234h-4.234zm0-8.465h4.234v4.233h-4.234z" fill-opacity=".995"/><path d="M31.22 69.321h4.234v4.233h-4.233zm0-8.467h4.234v4.233h-4.233zm0-8.467h4.234v4.233h-4.233zm0-8.466h4.234v4.233h-4.233zm0-8.467h4.234v4.233h-4.233zm0-8.467h4.234v4.233h-4.233zm0-8.466h4.234v4.233h-4.233zm0-8.467h4.234v4.233h-4.233z" fill-opacity=".379"/><path d="M31.22 65.087h4.234v4.233h-4.233zm0-8.466h4.234v4.233h-4.233zm0-8.467h4.234v4.233h-4.233zm0-8.467h4.234v4.233h-4.233zm0-8.466h4.234v4.233h-4.233zm0-8.467h4.234v4.233h-4.233zm0-8.467h4.234v4.233h-4.233zm0-8.466h4.234v4.233h-4.233z" fill-opacity=".995"/><path d="M35.454 65.088h4.233v4.233h-4.233zm0-8.468h4.233v4.234h-4.233zm0-8.466h4.233v4.233h-4.233zm0-8.466h4.233v4.233h-4.233zm0-8.468h4.233v4.234h-4.233zm0-8.466h4.233v4.233h-4.233zm0-8.466h4.233v4.233h-4.233zm0-8.468h4.233v4.234h-4.233z" fill-opacity=".379"/><path d="M35.454 69.32h4.233v4.234h-4.233zm0-8.465h4.233v4.233h-4.233zm0-8.467h4.233v4.233h-4.233zm0-8.468h4.233v4.234h-4.233zm0-8.465h4.233v4.233h-4.233zm0-8.467h4.233v4.233h-4.233zm0-8.468h4.233v4.234h-4.233zm0-8.465h4.233v4.233h-4.233z" fill-opacity=".995"/><path d="M39.687 69.321h4.234v4.233h-4.234zm0-8.467h4.234v4.233h-4.234zm0-8.467h4.234v4.233h-4.234zm0-8.466h4.234v4.233h-4.234zm0-8.467h4.234v4.233h-4.234zm0-8.467h4.234v4.233h-4.234zm0-8.466h4.234v4.233h-4.234zm0-8.467h4.234v4.233h-4.234z" fill-opacity=".379"/><path d="M39.687 65.087h4.234v4.233h-4.234zm0-8.466h4.234v4.233h-4.234zm0-8.467h4.234v4.233h-4.234zm0-8.467h4.234v4.233h-4.234zm0-8.466h4.234v4.233h-4.234zm0-8.467h4.234v4.233h-4.234zm0-8.467h4.234v4.233h-4.234zm0-8.466h4.234v4.233h-4.234z" fill-opacity=".995"/><path d="M43.92 65.088h4.234v4.233h-4.233zm0-8.468h4.234v4.234h-4.233zm0-8.466h4.234v4.233h-4.233zm0-8.466h4.234v4.233h-4.233zm0-8.468h4.234v4.234h-4.233zm0-8.466h4.234v4.233h-4.233zm0-8.466h4.234v4.233h-4.233zm0-8.468h4.234v4.234h-4.233z" fill-opacity=".379"/><path d="M43.92 69.32h4.234v4.234h-4.233zm0-8.465h4.234v4.233h-4.233zm0-8.467h4.234v4.233h-4.233zm0-8.468h4.234v4.234h-4.233zm0-8.465h4.234v4.233h-4.233zm0-8.467h4.234v4.233h-4.233zm0-8.468h4.234v4.234h-4.233zm0-8.465h4.234v4.233h-4.233z" fill-opacity=".995"/><path d="M48.154 69.321h4.233v4.233h-4.233zm0-8.467h4.233v4.233h-4.233zm0-8.467h4.233v4.233h-4.233zm0-8.466h4.233v4.233h-4.233zm0-8.467h4.233v4.233h-4.233zm0-8.467h4.233v4.233h-4.233zm0-8.466h4.233v4.233h-4.233zm0-8.467h4.233v4.233h-4.233z" fill-opacity=".379"/><path d="M48.154 65.087h4.233v4.233h-4.233zm0-8.466h4.233v4.233h-4.233zm0-8.467h4.233v4.233h-4.233zm0-8.467h4.233v4.233h-4.233zm0-8.466h4.233v4.233h-4.233zm0-8.467h4.233v4.233h-4.233zm0-8.467h4.233v4.233h-4.233zm0-8.466h4.233v4.233h-4.233z" fill-opacity=".995"/><path d="M52.387 65.088h4.234v4.233h-4.234zm0-8.468h4.234v4.234h-4.234zm0-8.466h4.234v4.233h-4.234zm0-8.466h4.234v4.233h-4.234zm0-8.468h4.234v4.234h-4.234zm0-8.466h4.234v4.233h-4.234zm0-8.466h4.234v4.233h-4.234zm0-8.468h4.234v4.234h-4.234z" fill-opacity=".379"/><path d="M52.387 69.32h4.234v4.234h-4.234zm0-8.465h4.234v4.233h-4.234zm0-8.467h4.234v4.233h-4.234zm0-8.468h4.234v4.234h-4.234zm0-8.465h4.234v4.233h-4.234zm0-8.467h4.234v4.233h-4.234zm0-8.468h4.234v4.234h-4.234zm0-8.465h4.234v4.233h-4.234z" fill-opacity=".995"/><path d="M56.62 69.321h4.234v4.233h-4.233zm0-8.467h4.234v4.233h-4.233zm0-8.467h4.234v4.233h-4.233zm0-8.466h4.234v4.233h-4.233zm0-8.467h4.234v4.233h-4.233zm0-8.467h4.234v4.233h-4.233zm0-8.466h4.234v4.233h-4.233zm0-8.467h4.234v4.233h-4.233z" fill-opacity=".379"/><path d="M56.62 65.087h4.234v4.233h-4.233zm0-8.466h4.234v4.233h-4.233zm0-8.467h4.234v4.233h-4.233zm0-8.467h4.234v4.233h-4.233zm0-8.466h4.234v4.233h-4.233zm0-8.467h4.234v4.233h-4.233zm0-8.467h4.234v4.233h-4.233zm0-8.466h4.234v4.233h-4.233z" fill-opacity=".995"/><path d="M60.854 65.088h4.233v4.233h-4.233zm0-8.468h4.233v4.234h-4.233zm0-8.466h4.233v4.233h-4.233zm0-8.466h4.233v4.233h-4.233zm0-8.468h4.233v4.234h-4.233zm0-8.466h4.233v4.233h-4.233zm0-8.466h4.233v4.233h-4.233zm0-8.468h4.233v4.234h-4.233z" fill-opacity=".379"/><path d="M60.854 69.32h4.233v4.234h-4.233zm0-8.465h4.233v4.233h-4.233zm0-8.467h4.233v4.233h-4.233zm0-8.468h4.233v4.234h-4.233zm0-8.465h4.233v4.233h-4.233zm0-8.467h4.233v4.233h-4.233zm0-8.468h4.233v4.234h-4.233zm0-8.465h4.233v4.233h-4.233z" fill-opacity=".995"/><path d="M65.087 69.321h4.234v4.233h-4.234zm0-8.467h4.234v4.233h-4.234zm0-8.467h4.234v4.233h-4.234zm0-8.466h4.234v4.233h-4.234zm0-8.467h4.234v4.233h-4.234zm0-8.467h4.234v4.233h-4.234zm0-8.466h4.234v4.233h-4.234zm0-8.467h4.234v4.233h-4.234z" fill-opacity=".379"/><path d="M65.087 65.087h4.234v4.233h-4.234zm0-8.466h4.234v4.233h-4.234zm0-8.467h4.234v4.233h-4.234zm0-8.467h4.234v4.233h-4.234zm0-8.466h4.234v4.233h-4.234zm0-8.467h4.234v4.233h-4.234zm0-8.467h4.234v4.233h-4.234zm0-8.466h4.234v4.233h-4.234z" fill-opacity=".995"/><path d="M69.32 65.088h4.234v4.233h-4.233zm0-8.468h4.234v4.234h-4.233zm0-8.466h4.234v4.233h-4.233zm0-8.466h4.234v4.233h-4.233zm0-8.468h4.234v4.234h-4.233zm0-8.466h4.234v4.233h-4.233zm0-8.466h4.234v4.233h-4.233zm0-8.468h4.234v4.234h-4.233z" fill-opacity=".379"/><path d="M69.32 69.32h4.234v4.234h-4.233zm0-8.465h4.234v4.233h-4.233zm0-8.467h4.234v4.233h-4.233zm0-8.468h4.234v4.234h-4.233zm0-8.465h4.234v4.233h-4.233zm0-8.467h4.234v4.233h-4.233zm0-8.468h4.234v4.234h-4.233zm0-8.465h4.234v4.233h-4.233z" fill-opacity=".995"/></g><path opacity=".9" fill="#fff" fill-opacity=".98" d="M5.821 28.403h67.733v22.569H5.821z"/><g opacity=".9"><path d="M73.554 50.972l-4.233 22.582-4.233-22.582z" fill="#fff" fill-rule="evenodd"/><path d="M73.554 50.972l-4.233 22.582-4.233-22.582" fill="none" stroke="#000" stroke-width=".265" stroke-dasharray=".26458332,.79374995"/><path d="M65.088 50.972l-4.234 22.582-4.233-22.582z" fill="#fff" fill-rule="evenodd"/><path d="M65.088 50.972l-4.234 22.582-4.233-22.582" fill="none" stroke="#000" stroke-width=".265" stroke-dasharray=".26458332,.79374995"/><path d="M48.154 50.972l-4.233 22.582-4.233-22.582z" fill="#fff" fill-rule="evenodd"/><path d="M48.154 50.972l-4.233 22.582-4.233-22.582" fill="none" stroke="#000" stroke-width=".265" stroke-dasharray=".26458332,.79374995"/><path d="M56.62 50.972l-4.232 22.582-4.234-22.582z" fill="#fff" fill-rule="evenodd"/><path d="M56.62 50.972l-4.232 22.582-4.234-22.582" fill="none" stroke="#000" stroke-width=".265" stroke-dasharray=".26458332,.79374995"/><path d="M39.688 50.972l-4.234 22.582-4.233-22.582z" fill="#fff" fill-rule="evenodd"/><path d="M39.688 50.972l-4.234 22.582-4.233-22.582" fill="none" stroke="#000" stroke-width=".265" stroke-dasharray=".26458332,.79374995"/><path d="M31.22 50.972l-4.232 22.582-4.234-22.582z" fill="#fff" fill-rule="evenodd"/><path d="M31.22 50.972l-4.232 22.582-4.234-22.582" fill="none" stroke="#000" stroke-width=".265" stroke-dasharray=".26458332,.79374995"/><path d="M22.754 50.972l-4.233 22.582-4.233-22.582z" fill="#fff" fill-rule="evenodd"/><path d="M22.754 50.972l-4.233 22.582-4.233-22.582" fill="none" stroke="#000" stroke-width=".265" stroke-dasharray=".26458332,.79374995"/><path d="M14.288 50.972l-4.234 22.582-4.233-22.582z" fill="#fff" fill-rule="evenodd"/><path d="M14.288 50.972l-4.234 22.582-4.233-22.582" fill="none" stroke="#000" stroke-width=".265" stroke-dasharray=".26458332,.79374995"/></g><path d="M14.287 28.403v22.569" opacity=".9" fill="none" stroke="#000" stroke-width=".265" stroke-dasharray=".26458333,.79375"/><g opacity=".9"><path d="M5.82 28.403l4.234-22.582 4.233 22.582z" fill="#fff" fill-rule="evenodd"/><path d="M5.82 28.403l4.234-22.582 4.233 22.582" fill="none" stroke="#000" stroke-width=".265" stroke-dasharray=".26458332,.79374995"/><path d="M14.287 28.403l4.234-22.582 4.233 22.582z" fill="#fff" fill-rule="evenodd"/><path d="M14.287 28.403l4.234-22.582 4.233 22.582" fill="none" stroke="#000" stroke-width=".265" stroke-dasharray=".26458332,.79374995"/><path d="M31.22 28.403l4.234-22.582 4.233 22.582z" fill="#fff" fill-rule="evenodd"/><path d="M31.22 28.403l4.234-22.582 4.233 22.582" fill="none" stroke="#000" stroke-width=".265" stroke-dasharray=".26458332,.79374995"/><path d="M22.754 28.403l4.233-22.582 4.234 22.582z" fill="#fff" fill-rule="evenodd"/><path d="M22.754 28.403l4.233-22.582 4.234 22.582" fill="none" stroke="#000" stroke-width=".265" stroke-dasharray=".26458332,.79374995"/><path d="M39.687 28.403l4.234-22.582 4.233 22.582z" fill="#fff" fill-rule="evenodd"/><path d="M39.687 28.403l4.234-22.582 4.233 22.582" fill="none" stroke="#000" stroke-width=".265" stroke-dasharray=".26458332,.79374995"/><path d="M48.154 28.403l4.233-22.582 4.234 22.582z" fill="#fff" fill-rule="evenodd"/><path d="M48.154 28.403l4.233-22.582 4.234 22.582" fill="none" stroke="#000" stroke-width=".265" stroke-dasharray=".26458332,.79374995"/><path d="M56.62 28.403l4.234-22.582 4.233 22.582z" fill="#fff" fill-rule="evenodd"/><path d="M56.62 28.403l4.234-22.582 4.233 22.582" fill="none" stroke="#000" stroke-width=".265" stroke-dasharray=".26458332,.79374995"/><path d="M65.087 28.403l4.234-22.582 4.233 22.582z" fill="#fff" fill-rule="evenodd"/><path d="M65.087 28.403l4.234-22.582 4.233 22.582" fill="none" stroke="#000" stroke-width=".265" stroke-dasharray=".26458332,.79374995"/></g><path d="M73.554 50.972H5.821m67.733-22.569H5.821m16.933 0v22.569m8.466-22.569v22.569m8.467-22.569v22.569m8.467-22.569v22.569m8.466-22.569v22.569m8.467-22.569v22.569" opacity=".9" fill="none" stroke="#000" stroke-width=".265" stroke-dasharray=".26458333,.79375"/></svg>