<svg xmlns="http://www.w3.org/2000/svg" width="600" height="600"><path fill="#B0AFAF" d="M35 228.2c83.5 82.4 167.6 156.9 251.1 223.5-25.6 27.2-51.3 53.7-77.1 79.5-57.8-48.9-115.8-101.6-173.4-158l-.6-145z"/><path fill="#E5E5E5" d="M277.7 149.2c-88.7 74.7-169.4 149.7-242.2 224-10.8-43.3-18.9-86.8-24.3-130.4C72.5 187.1 138 131.4 208 76.1c22.4 24.3 45.7 48.7 69.7 73.1z"/><path fill="#B0AFAF" d="M315.3 149.2c78 74.7 163.9 149.7 257.8 224-1.5-43.3-.3-86.8 3.5-130.4-63.1-55.7-121.8-111.4-176-166.6-29.3 24.2-57.7 48.6-85.3 73z"/><path fill="#E5E5E5" d="M577.7 243.4c-84.8 77.5-170.3 146.9-255.1 208.3 25.6 27.2 51.3 53.7 77 79.5 57.8-48.8 115.8-101.3 173.5-157.6 1.5-43.4 3-86.8 4.6-130.2z"/></svg>