<?xml version="1.0" encoding="utf-8"?>
<!-- Generator: Adobe Illustrator 16.0.0, SVG Export Plug-In . SVG Version: 6.00 Build 0)  -->
<!DOCTYPE svg PUBLIC "-//W3C//DTD SVG 1.1//EN" "http://www.w3.org/Graphics/SVG/1.1/DTD/svg11.dtd">
<svg version="1.1" xmlns="http://www.w3.org/2000/svg" xmlns:xlink="http://www.w3.org/1999/xlink" x="0px" y="0px" width="600px"
	 height="600px" viewBox="0 0 600 600" enable-background="new 0 0 600 600" xml:space="preserve">
<g id="Layer_1" display="none">
	<rect display="inline" width="600" height="600"/>
</g>
<g id="Layer_3">
	<g>
		<path fill="#B0AFAF" d="M35,228.2c83.5,82.4,167.6,156.9,251.1,223.5c-25.6,27.2-51.3,53.7-77.1,79.5
			C151.2,482.3,93.2,429.6,35.6,373.2C35.4,324.9,35.2,276.5,35,228.2z"/>
	</g>
</g>
<g id="Layer_2">
	<g>
		<path fill="#E5E5E5" d="M277.7,149.2c-88.7,74.7-169.4,149.7-242.2,224c-10.8-43.3-18.9-86.8-24.3-130.4
			C72.5,187.1,138,131.4,208,76.1C230.4,100.4,253.7,124.8,277.7,149.2z"/>
	</g>
</g>
<g id="Layer_4">
	<g>
		<path fill="#B0AFAF" d="M315.3,149.2c78,74.7,163.9,149.7,257.8,224c-1.5-43.3-0.3-86.8,3.5-130.4
			c-63.1-55.7-121.8-111.4-176-166.6C371.3,100.4,342.9,124.8,315.3,149.2z"/>
	</g>
	<g>
		<path fill="#E5E5E5" d="M577.7,243.4c-84.8,77.5-170.3,146.9-255.1,208.3c25.6,27.2,51.3,53.7,77,79.5
			c57.8-48.8,115.8-101.3,173.5-157.6C574.6,330.2,576.1,286.8,577.7,243.4z"/>
	</g>
</g>
</svg>
