<svg id="Layer_1" data-name="Layer 1" xmlns="http://www.w3.org/2000/svg" xmlns:xlink="http://www.w3.org/1999/xlink" viewBox="0 0 100.8 50.4"><defs><style>.cls-4{fill:#fff}</style><radialGradient id="radial-gradient" cx="19.89" cy="19.56" r="21.63" gradientUnits="userSpaceOnUse"><stop offset=".66" stop-color="#fff"/><stop offset=".66" stop-color="#f8f8f8"/><stop offset=".7" stop-color="#bfbfbf"/><stop offset=".75" stop-color="#8c8c8c"/><stop offset=".79" stop-color="#616161"/><stop offset=".83" stop-color="#3e3e3e"/><stop offset=".87" stop-color="#232323"/><stop offset=".91" stop-color="#0f0f0f"/><stop offset=".96" stop-color="#040404"/><stop offset="1"/></radialGradient><radialGradient id="radial-gradient-2" cx="19.63" cy="19.61" r="15.57" gradientUnits="userSpaceOnUse"><stop offset=".95" stop-color="#fff"/><stop offset=".95" stop-color="#f8f8f8"/><stop offset=".95" stop-color="#c4c4c4"/><stop offset=".95" stop-color="#969696"/><stop offset=".96" stop-color="#6d6d6d"/><stop offset=".96" stop-color="#4b4b4b"/><stop offset=".97" stop-color="#303030"/><stop offset=".98" stop-color="#1b1b1b"/><stop offset=".98" stop-color="#0c0c0c"/><stop offset=".99" stop-color="#030303"/><stop offset="1"/></radialGradient><mask id="mask" x="-1.73" y="-2.16" width="43.25" height="43.35" maskUnits="userSpaceOnUse"><circle cx="19.89" cy="19.56" r="21.63" fill="url(#radial-gradient)"/></mask><mask id="mask-2" x="3.62" y="3.47" width="32.02" height="32.02" maskUnits="userSpaceOnUse"><circle cx="19.63" cy="19.61" r="15.57" fill="url(#radial-gradient-2)"/></mask><radialGradient id="radial-gradient-3" cx="15.36" cy="17.08" r="9.78" gradientUnits="userSpaceOnUse"><stop offset="0" stop-color="#c4dff6"/><stop offset="1" stop-color="#1779be"/></radialGradient><radialGradient id="radial-gradient-4" cx="14.81" cy="17.21" r="12" gradientUnits="userSpaceOnUse"><stop offset="0" stop-color="#bbd147"/><stop offset=".96" stop-color="#519d4d"/></radialGradient><radialGradient id="radial-gradient-5" cx="17.85" cy="16.43" r="15.26" xlink:href="#radial-gradient-4"/><radialGradient id="radial-gradient-6" cx="18.96" cy="9.92" r="20.17" xlink:href="#radial-gradient-4"/></defs><g mask="url(#mask)"><circle class="cls-4" cx="19.89" cy="19.39" r="21.55"/></g><g mask="url(#mask-2)"><circle class="cls-4" cx="19.63" cy="19.48" r="16.01"/></g><path d="M90.01 11.03h4.45v17.82h-4.45zM54 23.84a5.68 5.68 0 0 1-4.33 1.89 4.62 4.62 0 0 1-4.79-4.23H58.5v-1.22c0-6.2-3.38-9.69-8.35-9.69-5.38 0-9.68 3.75-9.68 9.35s4.31 9.36 9.68 9.36a9.25 9.25 0 0 0 6.7-2.64zm-4.51-9.92c2.78 0 4.49 1.64 4.53 4.23h-9.11a4.43 4.43 0 0 1 4.6-4.22zM64.71 16c0-1.34 1.41-1.89 2.6-1.89A4 4 0 0 1 70.78 16l2.83-2.83a7.81 7.81 0 0 0-6.2-2.54c-3.6 0-7.16 1.78-7.16 5.75 0 6.79 9.61 3.9 9.61 7.57 0 1.41-1.67 2-3 2a5.44 5.44 0 0 1-4.22-2.18l-2.84 2.88a8.75 8.75 0 0 0 6.84 2.65c3.64 0 7.69-1.49 7.69-5.72-.01-6.94-9.62-4.34-9.62-7.58zm23.05-5.15a5.76 5.76 0 0 0-1.58-.26 5.68 5.68 0 0 0-5.27 3.26h-.07V11h-4.47v17.85h4.45v-9.54a4.48 4.48 0 0 1 4.79-4.49 8.53 8.53 0 0 1 2 .29z"/><path d="M97.63 10.95a1.15 1.15 0 1 1-1.15 1.15 1.16 1.16 0 0 1 1.15-1.15zm0 2.1a.95.95 0 1 0-.95-.95.95.95 0 0 0 .95.9zm-.44-1.61h.51c.32 0 .46.14.46.4a.33.33 0 0 1-.31.36l.34.56h-.25l-.33-.54h-.18v.54h-.24zm.24.57h.18c.15 0 .31 0 .31-.19s-.17-.19-.31-.18h-.18z" fill="#262424"/><path d="M92.2 2a2.85 2.85 0 1 1 0 5.7 2.88 2.88 0 0 1-2.92-2.8A2.88 2.88 0 0 1 92.2 2z"/><circle cx="19.77" cy="19.64" r="13.8" fill="url(#radial-gradient-3)"/><path d="M8.06 20.85c-.63-2.11.1-4.09 1.66-4.24 1.4-.14 2.61-2.23 3.6-3.6 2-2.82 5.16-2.35 5-3.76-.45-2.07-2.84-.53-4.38-.47a28.72 28.72 0 0 0-3.1.34A13.76 13.76 0 0 0 6 19.2c.81.86 1.89 2.79 3.13 3.91a4.6 4.6 0 0 1 .53-.19 10.42 10.42 0 0 1-1.6-2.07z" fill="url(#radial-gradient-4)"/><path d="M17.55 28.5c.73-1.9 1.14-2.74.16-4.69-2.17-.61-2.83-.81-5-1.25a3.53 3.53 0 0 0-2.46.2l-.59.17a1.37 1.37 0 0 0-.53.19 1.48 1.48 0 0 0-1 1.31c-.15 1.34 1.12 2.39 2.2 2.7 1.36.39 1.48-.07 2.19.9a10 10 0 0 1 .85 2.75 8.55 8.55 0 0 0 .63 1.37 13.7 13.7 0 0 0 3.09 1c.22-1.58.1-3.72.46-4.65z" fill="url(#radial-gradient-5)"/><path d="M33.55 19A13.76 13.76 0 0 0 29 9.4a2.21 2.21 0 0 1-1 0c-2.87-.52-3.55 1.15-4.38 2.35-.64.91-2.88 1.16-3.6 2.19-.56.8 0 2.38-.47 3.29a2.86 2.86 0 0 0 .15 2c.86 1.26 2.3.56 3.38 1 1.32.55 1.47 2.08 2.56 3.2s-1.4 2.84.64 6.91a2.88 2.88 0 0 0 .74 1 13.88 13.88 0 0 0 3.58-3.21c.31-2.05-.39-2.71.48-4.59A29 29 0 0 1 33.55 19z" fill="url(#radial-gradient-6)"/><path d="M15.35 16.55a25.87 25.87 0 0 1 8.32-2.08 18.3 18.3 0 0 0-3-4.93 22.66 22.66 0 0 0-6.83 1.71 41.35 41.35 0 0 0 1.51 5.3zm10.95 5.79a18.11 18.11 0 0 0-8 1.69 50.27 50.27 0 0 0 3.05 5.08 16.73 16.73 0 0 1 3.07-.83 19.2 19.2 0 0 1 2.83-.28 28.64 28.64 0 0 0-.95-5.66zm-8.61.51A18.66 18.66 0 0 1 26 21.2a50.57 50.57 0 0 0-1.9-5.62 21.34 21.34 0 0 0-8.39 2.1 47.85 47.85 0 0 0 1.98 5.17zm10-13.1A26.58 26.58 0 0 0 22 9.39a22.07 22.07 0 0 1 2.84 5.06 23.36 23.36 0 0 1 6.35 1.18 18.47 18.47 0 0 0-3.52-5.88zm5 12.82a20.42 20.42 0 0 0-1-5.85 18.49 18.49 0 0 0-6.28-1.17 39.29 39.29 0 0 1 1.78 5.7 22 22 0 0 1 5.43 1.33zM31.16 10C28.89 7.26 23.75 4.9 18 5.25a17.87 17.87 0 0 1 3.27 3.16 22.36 22.36 0 0 1 5.56.42 4.66 4.66 0 0 1-.49-.59c-.16-.34.23-.42.53-.22a6.81 6.81 0 0 1 1.2.91A17.65 17.65 0 0 1 31.16 10zm2.74 13.42a.68.68 0 0 1-.64.39 29.31 29.31 0 0 1-.17 3.12 20.69 20.69 0 0 0 1-2.54l.22-.87a13.92 13.92 0 0 0 .29-6.62 10.75 10.75 0 0 0-2.6-5.62A22 22 0 0 0 29 10a19.35 19.35 0 0 1 3.18 5.9 12.48 12.48 0 0 1 1.73 1c.1.12.1.35-.22.34a8.52 8.52 0 0 1-1.19-.37 24 24 0 0 1 .74 5.92s.76.41.66.63zm-2.09 5.47a4.73 4.73 0 0 0 .72-1 34.64 34.64 0 0 0 .09-4.3 19.65 19.65 0 0 0-5.22-1.15 32 32 0 0 1 .82 5.65 18.45 18.45 0 0 1 3.59.8zm-3.65 3.24a12.61 12.61 0 0 0 3.26-2.74 14 14 0 0 0-3.17-.39s-.02 2-.09 3.13zm-3.4 1.6a19 19 0 0 0 2.52-1.13 32.87 32.87 0 0 0 0-3.58 16.16 16.16 0 0 0-5.33 1 26.81 26.81 0 0 0 2.81 3.71zm-7.45-1.09a25.26 25.26 0 0 0 2.3 1.68 19.8 19.8 0 0 0 3.87-.32c-.61-.69-2.12-2.84-2.58-3.56a16.07 16.07 0 0 0-3.58 2.2zm-5-5.11A32.86 32.86 0 0 0 16.57 32a21 21 0 0 1 3.7-2.42 49.33 49.33 0 0 1-3-5.08 18.48 18.48 0 0 0-4.97 3.03zm-3.1-6a20.45 20.45 0 0 0 2.4 5.08 27.18 27.18 0 0 1 5.07-3.29c-.57-1.22-1.39-3.5-2-5.2a31 31 0 0 0-5.48 3.41zm-1.79-6.37a30.57 30.57 0 0 0 1.29 5.19 38.33 38.33 0 0 1 5.69-3.4 41.77 41.77 0 0 1-1.25-5.4 22.89 22.89 0 0 0-5.73 3.61zm-.27-4.35a16 16 0 0 0 .16 3.11A24.91 24.91 0 0 1 13 10.45a41.48 41.48 0 0 1-.46-4.65A18.29 18.29 0 0 0 7.11 11m6.12-6.41a15.49 15.49 0 0 1 8.33-1.31c.34 0 .31.33 0 .33h-.43a19.69 19.69 0 0 0-7.87 1.86 29.44 29.44 0 0 0 .44 4.75 25.51 25.51 0 0 1 6.26-1.65 22.93 22.93 0 0 0-2.83-2.45.75.75 0 0 1-.27-.64.56.56 0 0 1 .74-.54 11.92 11.92 0 0 1 3-.3c5.89-.26 11.27 3.07 13.32 6.87 5.2 8.23 0 19.57-6.81 22.59-2.91 1.29-5.41 1.85-10 1.21s-8.41-2.9-11.34-7.64C2.16 21.83 4.19 15 4.7 13.6a16.49 16.49 0 0 1 8.53-9.01zM6.28 14.71c-.06-.88-.13-2.1-.13-2.1a10.91 10.91 0 0 0-1.22 3.92 13.62 13.62 0 0 1 1.35-1.82zm9.5 17.93a29.15 29.15 0 0 1-4.4-4.41c-.37.22-.78.81-1.31.91a2.43 2.43 0 0 1-.82 0c-.14-.06 0-.35.18-.55a6.57 6.57 0 0 1 1.2-1.22 22 22 0 0 1-2.57-5.14 12.21 12.21 0 0 0-1.22.88.65.65 0 0 1-.7 0A.72.72 0 0 1 6.26 22c.19-.14 1.15-.8 1.37-1a28.17 28.17 0 0 1-1.21-5c-.39.34-.94.73-1.1.83a.75.75 0 0 1-.43 0 20 20 0 0 0 .75 7.41 14.45 14.45 0 0 0 9.28 9.44 9.19 9.19 0 0 1 .86-1.04zm2.41 1.64c-.46-.26-1-.67-1.56-1a5 5 0 0 0-.58.72 11 11 0 0 0 2.15.28zM6.75 43.29H5.32l.13-.98h3.97l-.13.98H7.86l-.57 4.04H6.18l.57-4.04zm6.15 4.04H14l.71-5.02H13.6l-.26 1.87h-2.15l.26-1.87h-1.1l-.71 5.02h1.11l.3-2.17h2.15l-.3 2.17zm6.06-1.02h-2.43l.14-1.02h2.17l.15-1.02h-2.18l.13-.94h2.31l.14-1.02h-3.41l-.7 5.02h3.54l.14-1.02zm6.36-1.06a.94.94 0 0 0-.21-.38 1.2 1.2 0 0 0-.34-.25 3.16 3.16 0 0 0-.4-.17l-.37-.13a2.12 2.12 0 0 1-.35-.13.62.62 0 0 1-.23-.18.38.38 0 0 1-.06-.28.47.47 0 0 1 .11-.24.67.67 0 0 1 .2-.16 1 1 0 0 1 .25-.09h.26a1.22 1.22 0 0 1 .43.08.66.66 0 0 1 .33.25l.87-.83a1.57 1.57 0 0 0-.66-.4 2.69 2.69 0 0 0-1.54 0 2.22 2.22 0 0 0-.66.31 1.87 1.87 0 0 0-.5.51 1.69 1.69 0 0 0-.26.71 1.1 1.1 0 0 0 .08.67 1.11 1.11 0 0 0 .38.41 2.18 2.18 0 0 0 .53.25l.54.18a1.41 1.41 0 0 1 .41.22.36.36 0 0 1 .12.36.48.48 0 0 1-.1.23.65.65 0 0 1-.2.16 1.05 1.05 0 0 1-.26.1 1.27 1.27 0 0 1-.28 0 1.1 1.1 0 0 1-.51-.12 1 1 0 0 1-.38-.35l-.91.87a1.92 1.92 0 0 0 .72.48 2.51 2.51 0 0 0 .89.15 2.87 2.87 0 0 0 .76-.1 2.1 2.1 0 0 0 .66-.31 1.85 1.85 0 0 0 .5-.52 1.76 1.76 0 0 0 .26-.73 1.3 1.3 0 0 0-.08-.57zm3.88 1.04a1.37 1.37 0 0 1-.62.14 1.21 1.21 0 0 1-.54-.12 1.1 1.1 0 0 1-.4-.34 1.36 1.36 0 0 1-.23-.51 1.78 1.78 0 0 1 0-.65 2 2 0 0 1 .2-.65 1.93 1.93 0 0 1 .38-.51 1.65 1.65 0 0 1 .51-.34 1.51 1.51 0 0 1 .6-.12 1.21 1.21 0 0 1 .53.11 1 1 0 0 1 .36.3l1-.69a1.28 1.28 0 0 0-.32-.35 1.74 1.74 0 0 0-.4-.23 2.19 2.19 0 0 0-.44-.12 2.54 2.54 0 0 0-.44 0 3.34 3.34 0 0 0-1.11.18 2.92 2.92 0 0 0-1.61 1.36 3.11 3.11 0 0 0-.36 1.09 2.68 2.68 0 0 0 0 1.09 2 2 0 0 0 .45.83 2 2 0 0 0 .78.53 2.89 2.89 0 0 0 1.06.18 2.71 2.71 0 0 0 1-.21 2.36 2.36 0 0 0 .9-.66l-.82-.69a1.47 1.47 0 0 1-.48.38zm3.82-3.98h-1.11l-.7 5.02h1.11l.7-5.02zm4.24 4h-2.43l.14-1.02h2.18l.14-1.02h-2.18l.13-.94h2.31l.14-1.02h-3.41l-.7 5.02h3.54l.14-1.02zm5.71 1.02l.7-5.02h-1.1l-.49 3.49h-.02l-1.64-3.49h-1.51l-.7 5.02h1.11l.5-3.57h.01l1.69 3.57h1.45zm2.66-3.16a1.93 1.93 0 0 1 .38-.51 1.65 1.65 0 0 1 .51-.34 1.51 1.51 0 0 1 .6-.12 1.21 1.21 0 0 1 .53.11.94.94 0 0 1 .36.3l1-.69a1.27 1.27 0 0 0-.32-.35 1.74 1.74 0 0 0-.4-.23 2.19 2.19 0 0 0-.44-.12 2.54 2.54 0 0 0-.44 0 3.34 3.34 0 0 0-1.11.18 2.92 2.92 0 0 0-1.61 1.36 3.11 3.11 0 0 0-.36 1.09 2.68 2.68 0 0 0 0 1.09 2 2 0 0 0 .45.83 2 2 0 0 0 .78.53 2.89 2.89 0 0 0 1.06.18 2.71 2.71 0 0 0 1-.21 2.36 2.36 0 0 0 .9-.66l-.82-.69a1.47 1.47 0 0 1-.49.4 1.37 1.37 0 0 1-.62.14 1.21 1.21 0 0 1-.54-.12 1.09 1.09 0 0 1-.4-.34 1.36 1.36 0 0 1-.23-.51 1.79 1.79 0 0 1 0-.65 2 2 0 0 1 .21-.67zm7.65-.84l.15-1.02h-3.41l-.71 5.02h3.54l.14-1.02h-2.43l.14-1.02h2.18l.14-1.02h-2.18l.14-.94h2.3zm8.06.4a2 2 0 0 0-.45-.83 2.05 2.05 0 0 0-.78-.53 2.87 2.87 0 0 0-1.06-.18 3.34 3.34 0 0 0-1.11.18 2.92 2.92 0 0 0-1.61 1.36 3.11 3.11 0 0 0-.33 1.09 2.68 2.68 0 0 0 0 1.09 2 2 0 0 0 .45.83 2 2 0 0 0 .78.53 2.9 2.9 0 0 0 1.06.18 3.31 3.31 0 0 0 1.11-.18 3 3 0 0 0 .93-.53 2.89 2.89 0 0 0 .68-.83 3.16 3.16 0 0 0 .35-1.09 2.69 2.69 0 0 0-.02-1.09zm-1.1 1.09a2 2 0 0 1-.2.65 1.84 1.84 0 0 1-.39.51 1.72 1.72 0 0 1-.54.34 1.77 1.77 0 0 1-.66.12 1.51 1.51 0 0 1-.62-.12 1.17 1.17 0 0 1-.44-.34 1.28 1.28 0 0 1-.24-.51 1.73 1.73 0 0 1 0-.65 2 2 0 0 1 .2-.65 1.82 1.82 0 0 1 .39-.51 1.72 1.72 0 0 1 .54-.34 1.78 1.78 0 0 1 .66-.12 1.52 1.52 0 0 1 .62.12 1.21 1.21 0 0 1 .45.34 1.23 1.23 0 0 1 .24.51 1.77 1.77 0 0 1-.01.65zm1.81 2.51h1.1l.27-1.96h2.09l.15-1.02h-2.09l.14-1.02h2.26l.15-1.02h-3.37l-.7 5.02zm11.06-1.72h-.02l-.58-3.3h-1.03l-1.5 3.22h-.02l-.34-3.22h-1.21l.79 5.02h.95l1.59-3.48h.01l.63 3.48h.98l2.17-5.02h-1.12l-1.3 3.3zm6.36-1.43h-2.15l.26-1.87h-1.11l-.7 5.02h1.11l.3-2.17h2.15l-.3 2.17h1.1l.71-5.02h-1.11l-.26 1.87zm1.94 3.15h3.54l.14-1.02h-2.43l.14-1.02h2.17l.15-1.02h-2.18l.13-.94h2.31l.14-1.02h-3.41l-.7 5.02zm8.96-3.5a1.46 1.46 0 0 0 0-.73 1 1 0 0 0-.35-.47 1.48 1.48 0 0 0-.57-.25 3.26 3.26 0 0 0-.72-.07h-1.99l-.7 5h1.11l.28-2H88l.77 2h1.33l-1-2.12a1.47 1.47 0 0 0 .87-.47 1.72 1.72 0 0 0 .4-.89zm-1.28.31a.65.65 0 0 1-.25.17 1.07 1.07 0 0 1-.31.06h-1l.16-1.14h1.02a.8.8 0 0 1 .27.08.44.44 0 0 1 .18.17.48.48 0 0 1 0 .31.57.57 0 0 1-.08.35zm1.8 3.19h3.54l.14-1.02h-2.43l.14-1.02h2.18l.14-1.02h-2.18l.14-.94h2.3l.14-1.02h-3.41l-.7 5.02zM34.86 35.71h59.53v.76H34.86zm61.75 6.8l-.2 1.11h-.23l.19-1.11H96v-.2h1v.2zm1.51 1.1l.19-1.05-.59 1.05h-.16l-.21-1.05-.19 1.05h-.22l.23-1.3h.35l.18.93.51-.93h.36l-.23 1.3z"/><path fill="none" d="M-7.57-6.52h115.32v66.96H-7.57z"/></svg>